<mxfile host="Electron" modified="2024-05-02T20:51:14.756Z" agent="Mozilla/5.0 (X11; Linux x86_64) AppleWebKit/537.36 (KHTML, like Gecko) draw.io/24.2.5 Chrome/120.0.6099.109 Electron/28.1.0 Safari/537.36" etag="zaouKwfnYrx0tCTcvtM2" version="24.2.5" type="device">
  <diagram name="第 1 页" id="XHSExBkJUX9wV1IYc-vu">
    <mxGraphModel dx="658" dy="457" grid="1" gridSize="10" guides="1" tooltips="1" connect="1" arrows="1" fold="1" page="1" pageScale="1" pageWidth="827" pageHeight="1169" math="0" shadow="0">
      <root>
        <mxCell id="0" />
        <mxCell id="1" parent="0" />
        <mxCell id="83Xe0QNXiItuGk4_ACq1-1" value="" style="verticalLabelPosition=bottom;shadow=0;dashed=0;align=center;html=1;verticalAlign=top;shape=mxgraph.electrical.transistors.nmos;pointerEvents=1;" vertex="1" parent="1">
          <mxGeometry x="380" y="240" width="60" height="100" as="geometry" />
        </mxCell>
        <mxCell id="83Xe0QNXiItuGk4_ACq1-4" value="" style="verticalLabelPosition=bottom;shadow=0;dashed=0;align=center;html=1;verticalAlign=top;strokeWidth=1;shape=ellipse;" vertex="1" parent="1">
          <mxGeometry x="375" y="285" width="10" height="10" as="geometry" />
        </mxCell>
        <mxCell id="83Xe0QNXiItuGk4_ACq1-5" value="" style="pointerEvents=1;verticalLabelPosition=bottom;shadow=0;dashed=0;align=center;html=1;verticalAlign=top;shape=mxgraph.electrical.signal_sources.signal_ground;" vertex="1" parent="1">
          <mxGeometry x="417.5" y="330" width="45" height="30" as="geometry" />
        </mxCell>
        <mxCell id="83Xe0QNXiItuGk4_ACq1-6" value="V&lt;sub&gt;dd&lt;/sub&gt;" style="verticalLabelPosition=top;verticalAlign=bottom;shape=mxgraph.electrical.signal_sources.vdd;shadow=0;dashed=0;align=center;strokeWidth=1;fontSize=24;html=1;flipV=1;" vertex="1" parent="1">
          <mxGeometry x="410" y="108" width="60" height="50" as="geometry" />
        </mxCell>
        <mxCell id="83Xe0QNXiItuGk4_ACq1-8" value="" style="verticalLabelPosition=bottom;shadow=0;dashed=0;align=center;html=1;verticalAlign=top;strokeWidth=1;shape=ellipse;" vertex="1" parent="1">
          <mxGeometry x="495" y="238" width="10" height="10" as="geometry" />
        </mxCell>
        <mxCell id="83Xe0QNXiItuGk4_ACq1-9" value="&lt;font style=&quot;font-size: 20px;&quot;&gt;V&lt;sub&gt;in&lt;/sub&gt;&lt;/font&gt;" style="text;html=1;align=center;verticalAlign=middle;whiteSpace=wrap;rounded=0;" vertex="1" parent="1">
          <mxGeometry x="350" y="248" width="60" height="30" as="geometry" />
        </mxCell>
        <mxCell id="83Xe0QNXiItuGk4_ACq1-10" value="&lt;font style=&quot;font-size: 20px;&quot;&gt;V&lt;sub&gt;out&lt;/sub&gt;&lt;/font&gt;" style="text;html=1;align=center;verticalAlign=middle;whiteSpace=wrap;rounded=0;" vertex="1" parent="1">
          <mxGeometry x="462.5" y="200" width="60" height="30" as="geometry" />
        </mxCell>
        <mxCell id="83Xe0QNXiItuGk4_ACq1-12" value="" style="pointerEvents=1;verticalLabelPosition=bottom;shadow=0;dashed=0;align=center;html=1;verticalAlign=top;shape=mxgraph.electrical.signal_sources.source;aspect=fixed;points=[[0.5,0,0],[1,0.5,0],[0.5,1,0],[0,0.5,0]];elSignalType=dc1;rotation=90;" vertex="1" parent="1">
          <mxGeometry x="410" y="158" width="60" height="60" as="geometry" />
        </mxCell>
        <mxCell id="83Xe0QNXiItuGk4_ACq1-13" value="" style="endArrow=none;html=1;strokeWidth=1;rounded=0;entryX=1;entryY=0;entryDx=0;entryDy=0;entryPerimeter=0;exitX=1;exitY=0.5;exitDx=0;exitDy=0;exitPerimeter=0;" edge="1" parent="1" source="83Xe0QNXiItuGk4_ACq1-12" target="83Xe0QNXiItuGk4_ACq1-1">
          <mxGeometry width="100" relative="1" as="geometry">
            <mxPoint x="380" y="280" as="sourcePoint" />
            <mxPoint x="480" y="280" as="targetPoint" />
          </mxGeometry>
        </mxCell>
        <mxCell id="83Xe0QNXiItuGk4_ACq1-14" value="" style="endArrow=none;html=1;strokeWidth=1;rounded=0;entryX=0;entryY=0.5;entryDx=0;entryDy=0;exitX=1;exitY=0;exitDx=0;exitDy=0;exitPerimeter=0;" edge="1" parent="1" source="83Xe0QNXiItuGk4_ACq1-1" target="83Xe0QNXiItuGk4_ACq1-8">
          <mxGeometry width="100" relative="1" as="geometry">
            <mxPoint x="380" y="280" as="sourcePoint" />
            <mxPoint x="480" y="280" as="targetPoint" />
          </mxGeometry>
        </mxCell>
        <mxCell id="83Xe0QNXiItuGk4_ACq1-15" value="&lt;span style=&quot;font-size: 20px;&quot;&gt;I&lt;sub&gt;D&lt;/sub&gt;&lt;/span&gt;" style="text;html=1;align=center;verticalAlign=middle;whiteSpace=wrap;rounded=0;" vertex="1" parent="1">
          <mxGeometry x="357.5" y="173" width="60" height="30" as="geometry" />
        </mxCell>
      </root>
    </mxGraphModel>
  </diagram>
</mxfile>
